<?xml version="1.0" encoding="UTF-8" standalone="no"?><svg xmlns="http://www.w3.org/2000/svg" xmlns:xlink="http://www.w3.org/1999/xlink" contentScriptType="application/ecmascript" contentStyleType="text/css" height="713px" preserveAspectRatio="none" style="width:655px;height:713px;" version="1.1" viewBox="0 0 655 713" width="655px" zoomAndPan="magnify"><defs><filter height="300%" id="fnw294bw6n1f1" width="300%" x="-1" y="-1"><feGaussianBlur result="blurOut" stdDeviation="2.0"/><feColorMatrix in="blurOut" result="blurOut2" type="matrix" values="0 0 0 0 0 0 0 0 0 0 0 0 0 0 0 0 0 0 .4 0"/><feOffset dx="4.0" dy="4.0" in="blurOut2" result="blurOut3"/><feBlend in="SourceGraphic" in2="blurOut3" mode="normal"/></filter></defs><g><!--class TasksAcvitity--><rect fill="#FEFECE" filter="url(#fnw294bw6n1f1)" height="60.9551" id="TasksAcvitity" style="stroke: #A80036; stroke-width: 1.5;" width="206" x="237.5" y="642"/><ellipse cx="299.25" cy="658" fill="#ADD1B2" rx="11" ry="11" style="stroke: #A80036; stroke-width: 1.0;"/><path d="M302.2231,663.6431 Q301.6421,663.9419 301.0029,664.0913 Q300.3638,664.2407 299.6582,664.2407 Q297.1514,664.2407 295.8315,662.5889 Q294.5117,660.937 294.5117,657.8159 Q294.5117,654.6865 295.8315,653.0347 Q297.1514,651.3828 299.6582,651.3828 Q300.3638,651.3828 301.0112,651.5322 Q301.6587,651.6816 302.2231,651.9805 L302.2231,654.7031 Q301.5923,654.1221 300.9988,653.8523 Q300.4053,653.5825 299.7744,653.5825 Q298.4297,653.5825 297.7449,654.6492 Q297.0601,655.7158 297.0601,657.8159 Q297.0601,659.9077 297.7449,660.9744 Q298.4297,662.041 299.7744,662.041 Q300.4053,662.041 300.9988,661.7712 Q301.5923,661.5015 302.2231,660.9204 Z "/><text fill="#000000" font-family="sans-serif" font-size="12" lengthAdjust="spacingAndGlyphs" textLength="74" x="319.75" y="662.5352">TasksAcvitity</text><line style="stroke: #A80036; stroke-width: 1.5;" x1="238.5" x2="442.5" y1="674" y2="674"/><rect fill="none" height="6" style="stroke: #C82930; stroke-width: 1.0;" width="6" x="245.5" y="682.9775"/><text fill="#000000" font-family="sans-serif" font-size="11" lengthAdjust="spacingAndGlyphs" textLength="180" x="257.5" y="688.6348">TasksPresenter mTasksPresenter;</text><line style="stroke: #A80036; stroke-width: 1.5;" x1="238.5" x2="442.5" y1="694.9551" y2="694.9551"/><!--class TasksPresenter--><rect fill="#FEFECE" filter="url(#fnw294bw6n1f1)" height="73.9102" id="TasksPresenter" style="stroke: #A80036; stroke-width: 1.5;" width="379" x="6" y="491"/><ellipse cx="146.75" cy="507" fill="#ADD1B2" rx="11" ry="11" style="stroke: #A80036; stroke-width: 1.0;"/><path d="M149.7231,512.6431 Q149.1421,512.9419 148.5029,513.0913 Q147.8638,513.2407 147.1582,513.2407 Q144.6514,513.2407 143.3315,511.5889 Q142.0117,509.937 142.0117,506.8159 Q142.0117,503.6865 143.3315,502.0347 Q144.6514,500.3828 147.1582,500.3828 Q147.8638,500.3828 148.5112,500.5322 Q149.1587,500.6816 149.7231,500.9805 L149.7231,503.7031 Q149.0923,503.1221 148.4988,502.8523 Q147.9053,502.5825 147.2744,502.5825 Q145.9297,502.5825 145.2449,503.6492 Q144.5601,504.7158 144.5601,506.8159 Q144.5601,508.9077 145.2449,509.9744 Q145.9297,511.041 147.2744,511.041 Q147.9053,511.041 148.4988,510.7712 Q149.0923,510.5015 149.7231,509.9204 Z "/><text fill="#000000" font-family="sans-serif" font-size="12" lengthAdjust="spacingAndGlyphs" textLength="89" x="167.25" y="511.5352">TasksPresenter</text><line style="stroke: #A80036; stroke-width: 1.5;" x1="7" x2="384" y1="523" y2="523"/><rect fill="none" height="6" style="stroke: #C82930; stroke-width: 1.0;" width="6" x="14" y="531.9775"/><text fill="#000000" font-family="sans-serif" font-size="11" lengthAdjust="spacingAndGlyphs" textLength="92" x="26" y="537.6348">View mTasksView</text><line style="stroke: #A80036; stroke-width: 1.5;" x1="7" x2="384" y1="543.9551" y2="543.9551"/><ellipse cx="17" cy="555.9326" fill="#84BE84" rx="3" ry="3" style="stroke: #038048; stroke-width: 1.0;"/><text fill="#000000" font-family="sans-serif" font-size="11" lengthAdjust="spacingAndGlyphs" textLength="353" x="26" y="558.5898">TasksPresenter(TasksRepository tasksRepository, View tasksView)</text><!--class TasksFragment--><rect fill="#FEFECE" filter="url(#fnw294bw6n1f1)" height="60.9551" id="TasksFragment" style="stroke: #A80036; stroke-width: 1.5;" width="132" x="420.5" y="497.5"/><ellipse cx="440.9" cy="513.5" fill="#ADD1B2" rx="11" ry="11" style="stroke: #A80036; stroke-width: 1.0;"/><path d="M443.8731,519.1431 Q443.2921,519.4419 442.6529,519.5913 Q442.0138,519.7407 441.3082,519.7407 Q438.8014,519.7407 437.4815,518.0889 Q436.1617,516.437 436.1617,513.3159 Q436.1617,510.1865 437.4815,508.5347 Q438.8014,506.8828 441.3082,506.8828 Q442.0138,506.8828 442.6612,507.0322 Q443.3087,507.1816 443.8731,507.4805 L443.8731,510.2031 Q443.2423,509.6221 442.6488,509.3523 Q442.0553,509.0825 441.4244,509.0825 Q440.0797,509.0825 439.3949,510.1492 Q438.7101,511.2158 438.7101,513.3159 Q438.7101,515.4077 439.3949,516.4744 Q440.0797,517.541 441.4244,517.541 Q442.0553,517.541 442.6488,517.2712 Q443.2423,517.0015 443.8731,516.4204 Z "/><text fill="#000000" font-family="sans-serif" font-size="12" lengthAdjust="spacingAndGlyphs" textLength="88" x="456.1" y="518.0352">TasksFragment</text><line style="stroke: #A80036; stroke-width: 1.5;" x1="421.5" x2="551.5" y1="529.5" y2="529.5"/><rect fill="none" height="6" style="stroke: #C82930; stroke-width: 1.0;" width="6" x="428.5" y="538.4775"/><text fill="#000000" font-family="sans-serif" font-size="11" lengthAdjust="spacingAndGlyphs" textLength="106" x="440.5" y="544.1348">Presenter presenter</text><line style="stroke: #A80036; stroke-width: 1.5;" x1="421.5" x2="551.5" y1="550.4551" y2="550.4551"/><!--class View--><rect fill="#FEFECE" filter="url(#fnw294bw6n1f1)" height="268.2363" id="View" style="stroke: #A80036; stroke-width: 1.5;" width="233" x="74" y="146"/><ellipse cx="172.75" cy="162" fill="#B4A7E5" rx="11" ry="11" style="stroke: #A80036; stroke-width: 1.0;"/><path d="M168.6777,157.7651 L168.6777,155.6069 L176.0571,155.6069 L176.0571,157.7651 L173.5918,157.7651 L173.5918,165.8418 L176.0571,165.8418 L176.0571,168 L168.6777,168 L168.6777,165.8418 L171.1431,165.8418 L171.1431,157.7651 Z "/><text fill="#000000" font-family="sans-serif" font-size="12" font-style="italic" lengthAdjust="spacingAndGlyphs" textLength="27" x="193.25" y="166.5352">View</text><line style="stroke: #A80036; stroke-width: 1.5;" x1="75" x2="306" y1="178" y2="178"/><line style="stroke: #A80036; stroke-width: 1.5;" x1="75" x2="306" y1="186" y2="186"/><text fill="#000000" font-family="sans-serif" font-size="11" lengthAdjust="spacingAndGlyphs" textLength="221" x="80" y="200.6348">void setLoadingIndicator(boolean active);</text><text fill="#000000" font-family="sans-serif" font-size="11" lengthAdjust="spacingAndGlyphs" textLength="189" x="80" y="213.5898">void showTasks(List&lt;Task&gt; tasks);</text><text fill="#000000" font-family="sans-serif" font-size="11" lengthAdjust="spacingAndGlyphs" textLength="112" x="80" y="226.5449">void showAddTask();</text><text fill="#000000" font-family="sans-serif" font-size="11" lengthAdjust="spacingAndGlyphs" textLength="204" x="80" y="239.5">void showTaskDetailsUi(String taskId);</text><text fill="#000000" font-family="sans-serif" font-size="11" lengthAdjust="spacingAndGlyphs" textLength="180" x="80" y="252.4551">void showTaskMarkedComplete();</text><text fill="#000000" font-family="sans-serif" font-size="11" lengthAdjust="spacingAndGlyphs" textLength="162" x="80" y="265.4102">void showTaskMarkedActive();</text><text fill="#000000" font-family="sans-serif" font-size="11" lengthAdjust="spacingAndGlyphs" textLength="195" x="80" y="278.3652">void showCompletedTasksCleared();</text><text fill="#000000" font-family="sans-serif" font-size="11" lengthAdjust="spacingAndGlyphs" textLength="167" x="80" y="291.3203">void showLoadingTasksError();</text><text fill="#000000" font-family="sans-serif" font-size="11" lengthAdjust="spacingAndGlyphs" textLength="111" x="80" y="304.2754">void showNoTasks();</text><text fill="#000000" font-family="sans-serif" font-size="11" lengthAdjust="spacingAndGlyphs" textLength="153" x="80" y="317.2305">void showActiveFilterLabel();</text><text fill="#000000" font-family="sans-serif" font-size="11" lengthAdjust="spacingAndGlyphs" textLength="178" x="80" y="330.1855">void showCompletedFilterLabel();</text><text fill="#000000" font-family="sans-serif" font-size="11" lengthAdjust="spacingAndGlyphs" textLength="134" x="80" y="343.1406">void showAllFilterLabel();</text><text fill="#000000" font-family="sans-serif" font-size="11" lengthAdjust="spacingAndGlyphs" textLength="144" x="80" y="356.0957">void showNoActiveTasks();</text><text fill="#000000" font-family="sans-serif" font-size="11" lengthAdjust="spacingAndGlyphs" textLength="169" x="80" y="369.0508">void showNoCompletedTasks();</text><text fill="#000000" font-family="sans-serif" font-size="11" lengthAdjust="spacingAndGlyphs" textLength="208" x="80" y="382.0059">void showSuccessfullySavedMessage();</text><text fill="#000000" font-family="sans-serif" font-size="11" lengthAdjust="spacingAndGlyphs" textLength="99" x="80" y="394.9609">boolean isActive();</text><text fill="#000000" font-family="sans-serif" font-size="11" lengthAdjust="spacingAndGlyphs" textLength="173" x="80" y="407.916">void showFilteringPopUpMenu();</text><!--class Presenter--><rect fill="#FEFECE" filter="url(#fnw294bw6n1f1)" height="164.5957" id="Presenter" style="stroke: #A80036; stroke-width: 1.5;" width="299" x="345" y="197.5"/><ellipse cx="462.75" cy="213.5" fill="#B4A7E5" rx="11" ry="11" style="stroke: #A80036; stroke-width: 1.0;"/><path d="M458.6777,209.2651 L458.6777,207.1069 L466.0571,207.1069 L466.0571,209.2651 L463.5918,209.2651 L463.5918,217.3418 L466.0571,217.3418 L466.0571,219.5 L458.6777,219.5 L458.6777,217.3418 L461.1431,217.3418 L461.1431,209.2651 Z "/><text fill="#000000" font-family="sans-serif" font-size="12" font-style="italic" lengthAdjust="spacingAndGlyphs" textLength="55" x="483.25" y="218.0352">Presenter</text><line style="stroke: #A80036; stroke-width: 1.5;" x1="346" x2="643" y1="229.5" y2="229.5"/><line style="stroke: #A80036; stroke-width: 1.5;" x1="346" x2="643" y1="237.5" y2="237.5"/><text fill="#000000" font-family="sans-serif" font-size="11" lengthAdjust="spacingAndGlyphs" textLength="236" x="351" y="252.1348">void result(int requestCode, int resultCode);</text><text fill="#000000" font-family="sans-serif" font-size="11" lengthAdjust="spacingAndGlyphs" textLength="203" x="351" y="265.0898">void loadTasks(boolean forceUpdate);</text><text fill="#000000" font-family="sans-serif" font-size="11" lengthAdjust="spacingAndGlyphs" textLength="104" x="351" y="278.0449">void addNewTask();</text><text fill="#000000" font-family="sans-serif" font-size="11" lengthAdjust="spacingAndGlyphs" textLength="287" x="351" y="291">void openTaskDetails(@NonNull Task requestedTask);</text><text fill="#000000" font-family="sans-serif" font-size="11" lengthAdjust="spacingAndGlyphs" textLength="275" x="351" y="303.9551">void completeTask(@NonNull Task completedTask);</text><text fill="#000000" font-family="sans-serif" font-size="11" lengthAdjust="spacingAndGlyphs" textLength="242" x="351" y="316.9102">void activateTask(@NonNull Task activeTask);</text><text fill="#000000" font-family="sans-serif" font-size="11" lengthAdjust="spacingAndGlyphs" textLength="152" x="351" y="329.8652">void clearCompletedTasks();</text><text fill="#000000" font-family="sans-serif" font-size="11" lengthAdjust="spacingAndGlyphs" textLength="251" x="351" y="342.8203">void setFiltering(TasksFilterType requestType);</text><text fill="#000000" font-family="sans-serif" font-size="11" lengthAdjust="spacingAndGlyphs" textLength="159" x="351" y="355.7754">TasksFilterType getFiltering();</text><!--class BaseView--><rect fill="#FEFECE" filter="url(#fnw294bw6n1f1)" height="60.9551" id="BaseView" style="stroke: #A80036; stroke-width: 1.5;" width="178" x="101.5" y="8"/><ellipse cx="153.25" cy="24" fill="#B4A7E5" rx="11" ry="11" style="stroke: #A80036; stroke-width: 1.0;"/><path d="M149.1777,19.7651 L149.1777,17.6069 L156.5571,17.6069 L156.5571,19.7651 L154.0918,19.7651 L154.0918,27.8418 L156.5571,27.8418 L156.5571,30 L149.1777,30 L149.1777,27.8418 L151.6431,27.8418 L151.6431,19.7651 Z "/><text fill="#000000" font-family="sans-serif" font-size="12" font-style="italic" lengthAdjust="spacingAndGlyphs" textLength="54" x="173.75" y="28.5352">BaseView</text><rect fill="#FFFFFF" height="16.1328" style="stroke: #000000; stroke-width: 1.0; stroke-dasharray: 2.0,2.0;" width="10" x="272.5" y="5"/><text fill="#000000" font-family="sans-serif" font-size="12" font-style="italic" lengthAdjust="spacingAndGlyphs" textLength="8" x="273.5" y="17.6016">T</text><line style="stroke: #A80036; stroke-width: 1.5;" x1="102.5" x2="278.5" y1="40" y2="40"/><line style="stroke: #A80036; stroke-width: 1.5;" x1="102.5" x2="278.5" y1="48" y2="48"/><text fill="#000000" font-family="sans-serif" font-size="11" lengthAdjust="spacingAndGlyphs" textLength="166" x="107.5" y="62.6348">void setPresenter(T presenter);</text><!--class BasePresenter--><rect fill="#FEFECE" filter="url(#fnw294bw6n1f1)" height="60.9551" id="BasePresenter" style="stroke: #A80036; stroke-width: 1.5;" width="114" x="437.5" y="8"/><ellipse cx="452.5" cy="24" fill="#B4A7E5" rx="11" ry="11" style="stroke: #A80036; stroke-width: 1.0;"/><path d="M448.4277,19.7651 L448.4277,17.6069 L455.8071,17.6069 L455.8071,19.7651 L453.3418,19.7651 L453.3418,27.8418 L455.8071,27.8418 L455.8071,30 L448.4277,30 L448.4277,27.8418 L450.8931,27.8418 L450.8931,19.7651 Z "/><text fill="#000000" font-family="sans-serif" font-size="12" font-style="italic" lengthAdjust="spacingAndGlyphs" textLength="82" x="466.5" y="28.5352">BasePresenter</text><line style="stroke: #A80036; stroke-width: 1.5;" x1="438.5" x2="550.5" y1="40" y2="40"/><line style="stroke: #A80036; stroke-width: 1.5;" x1="438.5" x2="550.5" y1="48" y2="48"/><text fill="#000000" font-family="sans-serif" font-size="11" lengthAdjust="spacingAndGlyphs" textLength="62" x="443.5" y="62.6348">void start();</text><!--link TasksPresenter to TasksAcvitity--><path d="M242.0623,574.4017 C264.1753,596.4385 289.9964,622.1706 309.6439,641.7503 " fill="none" id="TasksPresenter-TasksAcvitity" style="stroke: #A80036; stroke-width: 1.0;"/><polygon fill="#A80036" points="232.8411,565.2123,234.2675,572.2809,241.341,573.6829,239.9146,566.6143,232.8411,565.2123" style="stroke: #A80036; stroke-width: 1.0;"/><text fill="#000000" font-family="sans-serif" font-size="13" lengthAdjust="spacingAndGlyphs" textLength="54" x="278.5" y="608.5684">contains</text><!--link TasksFragment to TasksAcvitity--><path d="M446.1399,567.9454 C422.5302,591.3126 393.1842,620.357 371.4182,641.8994 " fill="none" id="TasksFragment-TasksAcvitity" style="stroke: #A80036; stroke-width: 1.0;"/><polygon fill="#A80036" points="455.5372,558.6447,448.4589,560.0224,447.0082,567.086,454.0865,565.7084,455.5372,558.6447" style="stroke: #A80036; stroke-width: 1.0;"/><text fill="#000000" font-family="sans-serif" font-size="13" lengthAdjust="spacingAndGlyphs" textLength="54" x="418.5" y="608.5684">contains</text><!--link View to TasksPresenter--><path d="M179.4309,427.4236 C179.7187,438.796 180.3724,450.0905 181.5,461 C182.5018,470.6926 184.2983,481.05 186.2775,490.652 " fill="none" id="View-TasksPresenter" style="stroke: #A80036; stroke-width: 1.0;"/><polygon fill="#A80036" points="179.2545,414.0559,175.3341,420.1082,179.413,426.0549,183.3334,420.0025,179.2545,414.0559" style="stroke: #A80036; stroke-width: 1.0;"/><text fill="#000000" font-family="sans-serif" font-size="13" lengthAdjust="spacingAndGlyphs" textLength="54" x="182.5" y="457.5684">contains</text><!--link Presenter to TasksFragment--><path d="M491.4089,375.8236 C490.0137,419.0762 488.4626,467.1581 487.4847,497.4758 " fill="none" id="Presenter-TasksFragment" style="stroke: #A80036; stroke-width: 1.0;"/><polygon fill="#A80036" points="491.8361,362.5804,487.6447,368.4483,491.4491,374.5742,495.6405,368.7063,491.8361,362.5804" style="stroke: #A80036; stroke-width: 1.0;"/><text fill="#000000" font-family="sans-serif" font-size="13" lengthAdjust="spacingAndGlyphs" textLength="54" x="489.5" y="457.5684">contains</text><!--link Presenter to TasksPresenter--><path d="M429.9394,378.8646 C407.4017,408.0533 380.2274,438.2422 350.5,461 C335.4857,472.4942 318.1977,482.4496 300.7349,490.9119 " fill="none" id="Presenter-TasksPresenter" style="stroke: #A80036; stroke-width: 1.0; stroke-dasharray: 7.0,7.0;"/><polygon fill="none" points="424.3766,374.6149,441.9701,362.8052,435.5812,383.0088,424.3766,374.6149" style="stroke: #A80036; stroke-width: 1.0;"/><text fill="#000000" font-family="sans-serif" font-size="13" lengthAdjust="spacingAndGlyphs" textLength="67" x="370.5" y="457.5684">implement</text><!--link View to TasksFragment--><path d="M249.0571,431.008 C257.3975,442.1613 266.837,452.3924 277.5,461 C321.956,496.8868 348.3618,472.7447 402.5,491 C408.389,492.9858 414.4332,495.2252 420.4487,497.595 " fill="none" id="View-TasksFragment" style="stroke: #A80036; stroke-width: 1.0; stroke-dasharray: 7.0,7.0;"/><polygon fill="none" points="243.0197,434.5765,237.6093,414.0892,254.6149,426.7309,243.0197,434.5765" style="stroke: #A80036; stroke-width: 1.0;"/><text fill="#000000" font-family="sans-serif" font-size="13" lengthAdjust="spacingAndGlyphs" textLength="67" x="278.5" y="457.5684">implement</text><!--link BaseView to View--><path d="M190.5,89.161 C190.5,106.0645 190.5,125.7707 190.5,145.9789 " fill="none" id="BaseView-View" style="stroke: #A80036; stroke-width: 1.0;"/><polygon fill="none" points="183.5001,89.0862,190.5,69.0861,197.5001,89.0861,183.5001,89.0862" style="stroke: #A80036; stroke-width: 1.0;"/><text fill="#000000" font-family="sans-serif" font-size="13" lengthAdjust="spacingAndGlyphs" textLength="128" x="191.5" y="112.5684">extends&lt;Presenter&gt;</text><!--link BasePresenter to Presenter--><path d="M494.5,89.5055 C494.5,120.7776 494.5,161.5467 494.5,197.3407 " fill="none" id="BasePresenter-Presenter" style="stroke: #A80036; stroke-width: 1.0;"/><polygon fill="none" points="487.5001,89.0862,494.5,69.0861,501.5001,89.0861,487.5001,89.0862" style="stroke: #A80036; stroke-width: 1.0;"/><text fill="#000000" font-family="sans-serif" font-size="13" lengthAdjust="spacingAndGlyphs" textLength="62" x="495.5" y="112.5684">extension</text><!--
@startuml

class TasksAcvitity {
    - TasksPresenter mTasksPresenter;
}

class TasksPresenter {
    - View mTasksView
    +TasksPresenter(TasksRepository tasksRepository, View tasksView)
}
class TasksFragment {
    - Presenter presenter
}

interface View {
    void setLoadingIndicator(boolean active);
    void showTasks(List<Task> tasks);
    void showAddTask();
    void showTaskDetailsUi(String taskId);
    void showTaskMarkedComplete();
    void showTaskMarkedActive();
    void showCompletedTasksCleared();
    void showLoadingTasksError();
    void showNoTasks();
    void showActiveFilterLabel();
    void showCompletedFilterLabel();
    void showAllFilterLabel();
    void showNoActiveTasks();
    void showNoCompletedTasks();
    void showSuccessfullySavedMessage();
    boolean isActive();
    void showFilteringPopUpMenu();
}

interface Presenter {
    void result(int requestCode, int resultCode);
    void loadTasks(boolean forceUpdate);
    void addNewTask();
    void openTaskDetails(@NonNull Task requestedTask);
    void completeTask(@NonNull Task completedTask);
    void activateTask(@NonNull Task activeTask);
    void clearCompletedTasks();
    void setFiltering(TasksFilterType requestType);
    TasksFilterType getFiltering();
}

interface BaseView<T> {
    void setPresenter(T presenter);
}

interface BasePresenter {
    void start();
}

TasksPresenter *- - TasksAcvitity : contains
TasksFragment *- - TasksAcvitity : contains

View *- - TasksPresenter : contains
Presenter *- - TasksFragment : contains

Presenter <|.. TasksPresenter: implement
View <|.. TasksFragment: implement

BaseView <|- - View: extends<Presenter>
BasePresenter <|- - Presenter: extension

@enduml

PlantUML version 1.2017.20(Tue Dec 12 00:57:05 CST 2017)
(GPL source distribution)
Java Runtime: Java(TM) SE Runtime Environment
JVM: Java HotSpot(TM) 64-Bit Server VM
Java Version: 1.8.0_20-b26
Operating System: Mac OS X
OS Version: 10.12.6
Default Encoding: UTF-8
Language: en
Country: US
--></g></svg>