<?xml version="1.0" encoding="UTF-8" standalone="no"?><svg xmlns="http://www.w3.org/2000/svg" xmlns:xlink="http://www.w3.org/1999/xlink" contentScriptType="application/ecmascript" contentStyleType="text/css" height="763px" preserveAspectRatio="none" style="width:612px;height:763px;" version="1.1" viewBox="0 0 612 763" width="612px" zoomAndPan="magnify"><defs><filter height="300%" id="fiwcfke938zx7" width="300%" x="-1" y="-1"><feGaussianBlur result="blurOut" stdDeviation="2.0"/><feColorMatrix in="blurOut" result="blurOut2" type="matrix" values="0 0 0 0 0 0 0 0 0 0 0 0 0 0 0 0 0 0 .4 0"/><feOffset dx="4.0" dy="4.0" in="blurOut2" result="blurOut3"/><feBlend in="SourceGraphic" in2="blurOut3" mode="normal"/></filter></defs><g><!--class TasksAcvitity--><rect fill="#FEFECE" filter="url(#fiwcfke938zx7)" height="63.0229" id="TasksAcvitity" style="stroke: #A80036; stroke-width: 1.5;" width="192" x="249.5" y="689"/><ellipse cx="306.75" cy="705" fill="#ADD1B2" rx="11" ry="11" style="stroke: #A80036; stroke-width: 1.0;"/><path d="M305.3281,710.3594 Q303.4688,710.3594 302.375,708.9688 Q301.2813,707.5781 301.2813,704.5938 Q301.2813,702.0625 302.4453,700.4063 Q303.6094,698.75 305.5938,698.75 Q307.0625,698.75 307.5313,698.9141 Q308,699.0781 308,699.0781 Q308,699.0781 308,699.0078 Q308,698.9375 308.6094,698.0156 L309.6563,701.6719 L308.3281,702.0781 Q307.8594,700.5313 307.1953,699.8672 Q306.5313,699.2031 305.4688,699.2031 Q305.0781,699.2031 304.3125,700.7344 Q303.5469,702.2656 303.5469,704.5156 Q303.5469,706.9844 304.2109,708.375 Q304.875,709.7656 305.4063,709.7656 Q306.4688,709.7656 307.2266,709 Q307.9844,708.2344 308.3281,706.5781 L309.6563,707.1719 Q309.3281,708.5781 308.4297,709.4688 Q307.5313,710.3594 305.3281,710.3594 Z "/><text fill="#000000" font-family="sans-serif" font-size="12" lengthAdjust="spacingAndGlyphs" textLength="69" x="327.25" y="710.5576">TasksAcvitity</text><line style="stroke: #A80036; stroke-width: 1.5;" x1="250.5" x2="440.5" y1="721" y2="721"/><rect fill="none" height="6" style="stroke: #C82930; stroke-width: 1.0;" width="6" x="257.5" y="731.0115"/><text fill="#000000" font-family="sans-serif" font-size="11" lengthAdjust="spacingAndGlyphs" textLength="166" x="269.5" y="737.606">TasksPresenter mTasksPresenter;</text><line style="stroke: #A80036; stroke-width: 1.5;" x1="250.5" x2="440.5" y1="744.0229" y2="744.0229"/><!--class TasksPresenter--><rect fill="#FEFECE" filter="url(#fiwcfke938zx7)" height="78.0459" id="TasksPresenter" style="stroke: #A80036; stroke-width: 1.5;" width="359" x="6" y="532"/><ellipse cx="137.25" cy="548" fill="#ADD1B2" rx="11" ry="11" style="stroke: #A80036; stroke-width: 1.0;"/><path d="M135.8281,553.3594 Q133.9688,553.3594 132.875,551.9688 Q131.7813,550.5781 131.7813,547.5938 Q131.7813,545.0625 132.9453,543.4063 Q134.1094,541.75 136.0938,541.75 Q137.5625,541.75 138.0313,541.9141 Q138.5,542.0781 138.5,542.0781 Q138.5,542.0781 138.5,542.0078 Q138.5,541.9375 139.1094,541.0156 L140.1563,544.6719 L138.8281,545.0781 Q138.3594,543.5313 137.6953,542.8672 Q137.0313,542.2031 135.9688,542.2031 Q135.5781,542.2031 134.8125,543.7344 Q134.0469,545.2656 134.0469,547.5156 Q134.0469,549.9844 134.7109,551.375 Q135.375,552.7656 135.9063,552.7656 Q136.9688,552.7656 137.7266,552 Q138.4844,551.2344 138.8281,549.5781 L140.1563,550.1719 Q139.8281,551.5781 138.9297,552.4688 Q138.0313,553.3594 135.8281,553.3594 Z "/><text fill="#000000" font-family="sans-serif" font-size="12" lengthAdjust="spacingAndGlyphs" textLength="88" x="157.75" y="553.5576">TasksPresenter</text><line style="stroke: #A80036; stroke-width: 1.5;" x1="7" x2="364" y1="564" y2="564"/><rect fill="none" height="6" style="stroke: #C82930; stroke-width: 1.0;" width="6" x="14" y="574.0115"/><text fill="#000000" font-family="sans-serif" font-size="11" lengthAdjust="spacingAndGlyphs" textLength="92" x="26" y="580.606">View mTasksView</text><line style="stroke: #A80036; stroke-width: 1.5;" x1="7" x2="364" y1="587.0229" y2="587.0229"/><ellipse cx="17" cy="600.0344" fill="#84BE84" rx="3" ry="3" style="stroke: #038048; stroke-width: 1.0;"/><text fill="#000000" font-family="sans-serif" font-size="11" lengthAdjust="spacingAndGlyphs" textLength="333" x="26" y="603.6289">TasksPresenter(TasksRepository tasksRepository, View tasksView)</text><!--class TasksFragment--><rect fill="#FEFECE" filter="url(#fiwcfke938zx7)" height="63.0229" id="TasksFragment" style="stroke: #A80036; stroke-width: 1.5;" width="123" x="400" y="539.5"/><ellipse cx="416.8" cy="555.5" fill="#ADD1B2" rx="11" ry="11" style="stroke: #A80036; stroke-width: 1.0;"/><path d="M415.3781,560.8594 Q413.5188,560.8594 412.425,559.4688 Q411.3313,558.0781 411.3313,555.0938 Q411.3313,552.5625 412.4953,550.9063 Q413.6594,549.25 415.6438,549.25 Q417.1125,549.25 417.5813,549.4141 Q418.05,549.5781 418.05,549.5781 Q418.05,549.5781 418.05,549.5078 Q418.05,549.4375 418.6594,548.5156 L419.7063,552.1719 L418.3781,552.5781 Q417.9094,551.0313 417.2453,550.3672 Q416.5813,549.7031 415.5188,549.7031 Q415.1281,549.7031 414.3625,551.2344 Q413.5969,552.7656 413.5969,555.0156 Q413.5969,557.4844 414.2609,558.875 Q414.925,560.2656 415.4563,560.2656 Q416.5188,560.2656 417.2766,559.5 Q418.0344,558.7344 418.3781,557.0781 L419.7063,557.6719 Q419.3781,559.0781 418.4797,559.9688 Q417.5813,560.8594 415.3781,560.8594 Z "/><text fill="#000000" font-family="sans-serif" font-size="12" lengthAdjust="spacingAndGlyphs" textLength="87" x="431.2" y="561.0576">TasksFragment</text><line style="stroke: #A80036; stroke-width: 1.5;" x1="401" x2="522" y1="571.5" y2="571.5"/><rect fill="none" height="6" style="stroke: #C82930; stroke-width: 1.0;" width="6" x="408" y="581.5115"/><text fill="#000000" font-family="sans-serif" font-size="11" lengthAdjust="spacingAndGlyphs" textLength="97" x="420" y="588.106">Presenter presenter</text><line style="stroke: #A80036; stroke-width: 1.5;" x1="401" x2="522" y1="594.5229" y2="594.5229"/><!--class View--><rect fill="#FEFECE" filter="url(#fiwcfke938zx7)" height="303.3901" id="View" style="stroke: #A80036; stroke-width: 1.5;" width="212" x="76.5" y="150"/><ellipse cx="165.25" cy="166" fill="#B4A7E5" rx="11" ry="11" style="stroke: #A80036; stroke-width: 1.0;"/><path d="M161.8438,160.2813 L161.8438,159.875 L168.1563,159.875 L168.1563,160.2813 L165.625,160.2813 Q165.625,160.2813 165.7734,160.4141 Q165.9219,160.5469 165.9219,160.8125 L165.9219,170.2969 Q165.9219,170.5625 166.1406,170.6953 Q166.3594,170.8281 166.3594,170.8281 L168.1563,170.8281 L168.1563,171.2344 L161.8438,171.2344 L161.8438,170.8281 L163.375,170.8281 Q163.7031,170.8281 163.8359,170.6953 Q163.9688,170.5625 163.9688,170.2969 L163.9688,160.8125 Q163.9688,160.5469 163.8359,160.4141 Q163.7031,160.2813 163.375,160.2813 L161.8438,160.2813 Z "/><text fill="#000000" font-family="sans-serif" font-size="12" font-style="italic" lengthAdjust="spacingAndGlyphs" textLength="26" x="185.75" y="171.5576">View</text><line style="stroke: #A80036; stroke-width: 1.5;" x1="77.5" x2="287.5" y1="182" y2="182"/><line style="stroke: #A80036; stroke-width: 1.5;" x1="77.5" x2="287.5" y1="190" y2="190"/><text fill="#000000" font-family="sans-serif" font-size="11" lengthAdjust="spacingAndGlyphs" textLength="198" x="82.5" y="206.606">void setLoadingIndicator(boolean active);</text><text fill="#000000" font-family="sans-serif" font-size="11" lengthAdjust="spacingAndGlyphs" textLength="172" x="82.5" y="221.6289">void showTasks(List&lt;Task&gt; tasks);</text><text fill="#000000" font-family="sans-serif" font-size="11" lengthAdjust="spacingAndGlyphs" textLength="105" x="82.5" y="236.6519">void showAddTask();</text><text fill="#000000" font-family="sans-serif" font-size="11" lengthAdjust="spacingAndGlyphs" textLength="185" x="82.5" y="251.6748">void showTaskDetailsUi(String taskId);</text><text fill="#000000" font-family="sans-serif" font-size="11" lengthAdjust="spacingAndGlyphs" textLength="164" x="82.5" y="266.6978">void showTaskMarkedComplete();</text><text fill="#000000" font-family="sans-serif" font-size="11" lengthAdjust="spacingAndGlyphs" textLength="151" x="82.5" y="281.7207">void showTaskMarkedActive();</text><text fill="#000000" font-family="sans-serif" font-size="11" lengthAdjust="spacingAndGlyphs" textLength="178" x="82.5" y="296.7437">void showCompletedTasksCleared();</text><text fill="#000000" font-family="sans-serif" font-size="11" lengthAdjust="spacingAndGlyphs" textLength="153" x="82.5" y="311.7666">void showLoadingTasksError();</text><text fill="#000000" font-family="sans-serif" font-size="11" lengthAdjust="spacingAndGlyphs" textLength="104" x="82.5" y="326.7896">void showNoTasks();</text><text fill="#000000" font-family="sans-serif" font-size="11" lengthAdjust="spacingAndGlyphs" textLength="142" x="82.5" y="341.8125">void showActiveFilterLabel();</text><text fill="#000000" font-family="sans-serif" font-size="11" lengthAdjust="spacingAndGlyphs" textLength="161" x="82.5" y="356.8354">void showCompletedFilterLabel();</text><text fill="#000000" font-family="sans-serif" font-size="11" lengthAdjust="spacingAndGlyphs" textLength="123" x="82.5" y="371.8584">void showAllFilterLabel();</text><text fill="#000000" font-family="sans-serif" font-size="11" lengthAdjust="spacingAndGlyphs" textLength="135" x="82.5" y="386.8813">void showNoActiveTasks();</text><text fill="#000000" font-family="sans-serif" font-size="11" lengthAdjust="spacingAndGlyphs" textLength="154" x="82.5" y="401.9043">void showNoCompletedTasks();</text><text fill="#000000" font-family="sans-serif" font-size="11" lengthAdjust="spacingAndGlyphs" textLength="200" x="82.5" y="416.9272">void showSuccessfullySavedMessage();</text><text fill="#000000" font-family="sans-serif" font-size="11" lengthAdjust="spacingAndGlyphs" textLength="91" x="82.5" y="431.9502">boolean isActive();</text><text fill="#000000" font-family="sans-serif" font-size="11" lengthAdjust="spacingAndGlyphs" textLength="156" x="82.5" y="446.9731">void showFilteringPopUpMenu();</text><!--class Presenter--><rect fill="#FEFECE" filter="url(#fiwcfke938zx7)" height="183.2065" id="Presenter" style="stroke: #A80036; stroke-width: 1.5;" width="273" x="328" y="210"/><ellipse cx="433.75" cy="226" fill="#B4A7E5" rx="11" ry="11" style="stroke: #A80036; stroke-width: 1.0;"/><path d="M430.3438,220.2813 L430.3438,219.875 L436.6563,219.875 L436.6563,220.2813 L434.125,220.2813 Q434.125,220.2813 434.2734,220.4141 Q434.4219,220.5469 434.4219,220.8125 L434.4219,230.2969 Q434.4219,230.5625 434.6406,230.6953 Q434.8594,230.8281 434.8594,230.8281 L436.6563,230.8281 L436.6563,231.2344 L430.3438,231.2344 L430.3438,230.8281 L431.875,230.8281 Q432.2031,230.8281 432.3359,230.6953 Q432.4688,230.5625 432.4688,230.2969 L432.4688,220.8125 Q432.4688,220.5469 432.3359,220.4141 Q432.2031,220.2813 431.875,220.2813 L430.3438,220.2813 Z "/><text fill="#000000" font-family="sans-serif" font-size="12" font-style="italic" lengthAdjust="spacingAndGlyphs" textLength="53" x="454.25" y="231.5576">Presenter</text><line style="stroke: #A80036; stroke-width: 1.5;" x1="329" x2="600" y1="242" y2="242"/><line style="stroke: #A80036; stroke-width: 1.5;" x1="329" x2="600" y1="250" y2="250"/><text fill="#000000" font-family="sans-serif" font-size="11" lengthAdjust="spacingAndGlyphs" textLength="209" x="334" y="266.606">void result(int requestCode, int resultCode);</text><text fill="#000000" font-family="sans-serif" font-size="11" lengthAdjust="spacingAndGlyphs" textLength="184" x="334" y="281.6289">void loadTasks(boolean forceUpdate);</text><text fill="#000000" font-family="sans-serif" font-size="11" lengthAdjust="spacingAndGlyphs" textLength="98" x="334" y="296.6519">void addNewTask();</text><text fill="#000000" font-family="sans-serif" font-size="11" lengthAdjust="spacingAndGlyphs" textLength="261" x="334" y="311.6748">void openTaskDetails(@NonNull Task requestedTask);</text><text fill="#000000" font-family="sans-serif" font-size="11" lengthAdjust="spacingAndGlyphs" textLength="248" x="334" y="326.6978">void completeTask(@NonNull Task completedTask);</text><text fill="#000000" font-family="sans-serif" font-size="11" lengthAdjust="spacingAndGlyphs" textLength="223" x="334" y="341.7207">void activateTask(@NonNull Task activeTask);</text><text fill="#000000" font-family="sans-serif" font-size="11" lengthAdjust="spacingAndGlyphs" textLength="137" x="334" y="356.7437">void clearCompletedTasks();</text><text fill="#000000" font-family="sans-serif" font-size="11" lengthAdjust="spacingAndGlyphs" textLength="226" x="334" y="371.7666">void setFiltering(TasksFilterType requestType);</text><text fill="#000000" font-family="sans-serif" font-size="11" lengthAdjust="spacingAndGlyphs" textLength="142" x="334" y="386.7896">TasksFilterType getFiltering();</text><!--class BaseView--><rect fill="#FEFECE" filter="url(#fiwcfke938zx7)" height="63.0229" id="BaseView" style="stroke: #A80036; stroke-width: 1.5;" width="164" x="100.5" y="8"/><ellipse cx="145.75" cy="24" fill="#B4A7E5" rx="11" ry="11" style="stroke: #A80036; stroke-width: 1.0;"/><path d="M142.3438,18.2813 L142.3438,17.875 L148.6563,17.875 L148.6563,18.2813 L146.125,18.2813 Q146.125,18.2813 146.2734,18.4141 Q146.4219,18.5469 146.4219,18.8125 L146.4219,28.2969 Q146.4219,28.5625 146.6406,28.6953 Q146.8594,28.8281 146.8594,28.8281 L148.6563,28.8281 L148.6563,29.2344 L142.3438,29.2344 L142.3438,28.8281 L143.875,28.8281 Q144.2031,28.8281 144.3359,28.6953 Q144.4688,28.5625 144.4688,28.2969 L144.4688,18.8125 Q144.4688,18.5469 144.3359,18.4141 Q144.2031,18.2813 143.875,18.2813 L142.3438,18.2813 Z "/><text fill="#000000" font-family="sans-serif" font-size="12" font-style="italic" lengthAdjust="spacingAndGlyphs" textLength="54" x="166.25" y="29.5576">BaseView</text><rect fill="#FFFFFF" height="18.3887" style="stroke: #000000; stroke-width: 1.0; stroke-dasharray: 2.0,2.0;" width="9" x="258.5" y="5"/><text fill="#000000" font-family="sans-serif" font-size="12" font-style="italic" lengthAdjust="spacingAndGlyphs" textLength="7" x="259.5" y="19.752">T</text><line style="stroke: #A80036; stroke-width: 1.5;" x1="101.5" x2="263.5" y1="40" y2="40"/><line style="stroke: #A80036; stroke-width: 1.5;" x1="101.5" x2="263.5" y1="48" y2="48"/><text fill="#000000" font-family="sans-serif" font-size="11" lengthAdjust="spacingAndGlyphs" textLength="152" x="106.5" y="64.606">void setPresenter(T presenter);</text><!--class BasePresenter--><rect fill="#FEFECE" filter="url(#fiwcfke938zx7)" height="63.0229" id="BasePresenter" style="stroke: #A80036; stroke-width: 1.5;" width="113" x="408" y="8"/><ellipse cx="423" cy="24" fill="#B4A7E5" rx="11" ry="11" style="stroke: #A80036; stroke-width: 1.0;"/><path d="M419.5938,18.2813 L419.5938,17.875 L425.9063,17.875 L425.9063,18.2813 L423.375,18.2813 Q423.375,18.2813 423.5234,18.4141 Q423.6719,18.5469 423.6719,18.8125 L423.6719,28.2969 Q423.6719,28.5625 423.8906,28.6953 Q424.1094,28.8281 424.1094,28.8281 L425.9063,28.8281 L425.9063,29.2344 L419.5938,29.2344 L419.5938,28.8281 L421.125,28.8281 Q421.4531,28.8281 421.5859,28.6953 Q421.7188,28.5625 421.7188,28.2969 L421.7188,18.8125 Q421.7188,18.5469 421.5859,18.4141 Q421.4531,18.2813 421.125,18.2813 L419.5938,18.2813 Z "/><text fill="#000000" font-family="sans-serif" font-size="12" font-style="italic" lengthAdjust="spacingAndGlyphs" textLength="81" x="437" y="29.5576">BasePresenter</text><line style="stroke: #A80036; stroke-width: 1.5;" x1="409" x2="520" y1="40" y2="40"/><line style="stroke: #A80036; stroke-width: 1.5;" x1="409" x2="520" y1="48" y2="48"/><text fill="#000000" font-family="sans-serif" font-size="11" lengthAdjust="spacingAndGlyphs" textLength="56" x="414" y="64.606">void start();</text><!--link TasksPresenter to TasksAcvitity--><path d="M236.741,619.238 C261.531,642.091 290.571,668.8625 312.405,688.9903 " fill="none" id="TasksPresenter-TasksAcvitity" style="stroke: #A80036; stroke-width: 1.0;"/><polygon fill="#A80036" points="227.12,610.369,228.8204,617.3768,235.9431,618.5024,234.2427,611.4947,227.12,610.369" style="stroke: #A80036; stroke-width: 1.0;"/><text fill="#000000" font-family="sans-serif" font-size="13" lengthAdjust="spacingAndGlyphs" textLength="49" x="281.5" y="655.8979">contains</text><!--link TasksFragment to TasksAcvitity--><path d="M429.39,612.829 C410.435,636.931 386.839,666.9351 369.504,688.9771 " fill="none" id="TasksFragment-TasksAcvitity" style="stroke: #A80036; stroke-width: 1.0;"/><polygon fill="#A80036" points="437.465,602.562,430.6119,604.8058,430.0472,611.9948,436.9004,609.751,437.465,602.562" style="stroke: #A80036; stroke-width: 1.0;"/><text fill="#000000" font-family="sans-serif" font-size="13" lengthAdjust="spacingAndGlyphs" textLength="49" x="408.5" y="655.8979">contains</text><!--link View to TasksPresenter--><path d="M176.193,466.282 C176.403,478.373 176.819,490.38 177.5,502 C178.07,511.731 179.096,522.204 180.227,531.947 " fill="none" id="View-TasksPresenter" style="stroke: #A80036; stroke-width: 1.0;"/><polygon fill="#A80036" points="176.045,453.143,172.1132,459.1879,176.1808,465.1422,180.1127,459.0973,176.045,453.143" style="stroke: #A80036; stroke-width: 1.0;"/><text fill="#000000" font-family="sans-serif" font-size="13" lengthAdjust="spacingAndGlyphs" textLength="49" x="178.5" y="498.8979">contains</text><!--link Presenter to TasksFragment--><path d="M463.335,406.339 C462.801,453.983 462.207,506.966 461.843,539.388 " fill="none" id="Presenter-TasksFragment" style="stroke: #A80036; stroke-width: 1.0;"/><polygon fill="#A80036" points="463.484,393.063,459.4163,399.0173,463.3482,405.0622,467.4158,399.1079,463.484,393.063" style="stroke: #A80036; stroke-width: 1.0;"/><text fill="#000000" font-family="sans-serif" font-size="13" lengthAdjust="spacingAndGlyphs" textLength="49" x="462.5" y="498.8979">contains</text><!--link Presenter to TasksPresenter--><path d="M407.116,410.512 C386.177,442.875 360.232,476.5 330.5,502 C317.098,513.494 301.423,523.47 285.428,531.974 " fill="none" id="Presenter-TasksPresenter" style="stroke: #A80036; stroke-width: 1.0;"/><polygon fill="none" points="401.376,406.488,417.913,393.24,413.247,413.909,401.376,406.488" style="stroke: #A80036; stroke-width: 1.0;"/><text fill="#000000" font-family="sans-serif" font-size="13" lengthAdjust="spacingAndGlyphs" textLength="56" x="350.5" y="498.8979">extension</text><!--link View to TasksFragment--><path d="M236.637,470.403 C244.696,482.073 253.929,492.823 264.5,502 C305.364,537.473 331.643,513.513 382.5,532 C388.651,534.236 394.964,536.793 401.212,539.499 " fill="none" id="View-TasksFragment" style="stroke: #A80036; stroke-width: 1.0;"/><polygon fill="none" points="230.653,474.036,226.007,453.362,242.531,466.627,230.653,474.036" style="stroke: #A80036; stroke-width: 1.0;"/><text fill="#000000" font-family="sans-serif" font-size="13" lengthAdjust="spacingAndGlyphs" textLength="56" x="265.5" y="498.8979">extension</text><!--link BaseView to View--><path d="M182.5,91.16 C182.5,108.415 182.5,128.689 182.5,149.708 " fill="none" id="BaseView-View" style="stroke: #A80036; stroke-width: 1.0;"/><polygon fill="none" points="175.5,91.09,182.5,71.09,189.5,91.09,175.5,91.09" style="stroke: #A80036; stroke-width: 1.0;"/><text fill="#000000" font-family="sans-serif" font-size="13" lengthAdjust="spacingAndGlyphs" textLength="118" x="183.5" y="116.8979">extends&lt;Presenter&gt;</text><!--link BasePresenter to Presenter--><path d="M464.5,91.395 C464.5,125.066 464.5,170.16 464.5,209.851 " fill="none" id="BasePresenter-Presenter" style="stroke: #A80036; stroke-width: 1.0;"/><polygon fill="none" points="457.5,91.09,464.5,71.09,471.5,91.09,457.5,91.09" style="stroke: #A80036; stroke-width: 1.0;"/><text fill="#000000" font-family="sans-serif" font-size="13" lengthAdjust="spacingAndGlyphs" textLength="56" x="465.5" y="116.8979">extension</text><!--
@startuml

class TasksAcvitity {
    - TasksPresenter mTasksPresenter;
}

class TasksPresenter {
    - View mTasksView
    +TasksPresenter(TasksRepository tasksRepository, View tasksView)
}
class TasksFragment {
    - Presenter presenter
}

interface View {
    void setLoadingIndicator(boolean active);
    void showTasks(List<Task> tasks);
    void showAddTask();
    void showTaskDetailsUi(String taskId);
    void showTaskMarkedComplete();
    void showTaskMarkedActive();
    void showCompletedTasksCleared();
    void showLoadingTasksError();
    void showNoTasks();
    void showActiveFilterLabel();
    void showCompletedFilterLabel();
    void showAllFilterLabel();
    void showNoActiveTasks();
    void showNoCompletedTasks();
    void showSuccessfullySavedMessage();
    boolean isActive();
    void showFilteringPopUpMenu();
}

interface Presenter {
    void result(int requestCode, int resultCode);
    void loadTasks(boolean forceUpdate);
    void addNewTask();
    void openTaskDetails(@NonNull Task requestedTask);
    void completeTask(@NonNull Task completedTask);
    void activateTask(@NonNull Task activeTask);
    void clearCompletedTasks();
    void setFiltering(TasksFilterType requestType);
    TasksFilterType getFiltering();
}

interface BaseView<T> {
    void setPresenter(T presenter);
}

interface BasePresenter {
    void start();
}

TasksPresenter *- - TasksAcvitity : contains
TasksFragment *- - TasksAcvitity : contains

View *- - TasksPresenter : contains
Presenter *- - TasksFragment : contains

Presenter <|- - TasksPresenter: extension
View <|- - TasksFragment: extension

BaseView <|- - View: extends<Presenter>
BasePresenter <|- - Presenter: extension

@enduml

PlantUML version 1.2017.20(Tue Dec 12 00:57:05 CST 2017)
(GPL source distribution)
Java Runtime: Java(TM) SE Runtime Environment
JVM: Java HotSpot(TM) 64-Bit Server VM
Java Version: 1.8.0_151-b12
Operating System: Windows 7
OS Version: 6.1
Default Encoding: GBK
Language: zh
Country: CN
--></g></svg>